<?xml version="1.0" encoding="utf-8"?>
<!-- Generator: Adobe Illustrator 24.3.0, SVG Export Plug-In . SVG Version: 6.00 Build 0)  -->
<svg version="1.1" id="Layer_1" xmlns="http://www.w3.org/2000/svg" xmlns:xlink="http://www.w3.org/1999/xlink" x="0px" y="0px"
	 viewBox="0 0 80 80" style="enable-background:new 0 0 80 80;" xml:space="preserve">
<style type="text/css">
	.st0{fill:#5865F2;}
</style>
<g>
	<g>
		<g>
			<g>
				<path class="st0" d="M65,16.2c-4.7-2.2-9.6-3.8-14.9-4.7c-0.6,1.2-1.4,2.7-1.9,4c-5.5-0.8-11-0.8-16.5,0c-0.5-1.2-1.3-2.8-1.9-4
					C24.6,12.4,19.6,14,15,16.2C5.6,30.4,3,44.3,4.3,57.9c6.2,4.7,12.3,7.5,18.2,9.3c1.5-2,2.8-4.2,3.9-6.4c-2.1-0.8-4.2-1.8-6.1-3
					c0.5-0.4,1-0.8,1.5-1.2c11.8,5.5,24.7,5.5,36.4,0c0.5,0.4,1,0.8,1.5,1.2c-1.9,1.2-4,2.2-6.2,3c1.1,2.3,2.4,4.4,3.9,6.4
					c5.9-1.9,12-4.7,18.2-9.3C77.2,42.1,73.1,28.4,65,16.2z M28,49.5c-3.6,0-6.5-3.3-6.5-7.4c0-4,2.9-7.4,6.5-7.4
					c3.6,0,6.5,3.3,6.5,7.4C34.5,46.2,31.7,49.5,28,49.5z M52,49.5c-3.6,0-6.5-3.3-6.5-7.4c0-4,2.9-7.4,6.5-7.4
					c3.6,0,6.5,3.3,6.5,7.4C58.4,46.2,55.6,49.5,52,49.5z"/>
			</g>
		</g>
	</g>
</g>
</svg>
